<svg width="60" height="60" viewBox="0 0 60 60" fill="none" xmlns="http://www.w3.org/2000/svg">
<g clip-path="url(#clip0_644_19)">
<path fill-rule="evenodd" clip-rule="evenodd" d="M23.9653 37.7583V20.9229C29.9419 23.7352 34.5708 26.4519 40.0454 29.3809C35.53 31.885 29.9419 34.6947 23.9653 37.7583ZM57.273 12.5499C56.2421 11.1916 54.485 10.1343 52.6143 9.78423C47.1158 8.74008 12.813 8.73711 7.31746 9.78423C5.81733 10.0654 4.48151 10.7452 3.334 11.8013C-1.50109 16.289 0.0139985 40.3551 1.17944 44.2535C1.66952 45.9408 2.30307 47.1578 3.10095 47.9566C4.12893 49.0127 5.5364 49.7399 7.15307 50.066C11.6804 51.0024 35.0041 51.526 52.5186 50.2066C54.1323 49.9254 55.5607 49.1748 56.6873 48.0738C61.1578 43.604 60.853 18.1864 57.273 12.5499Z" fill="white"/>
</g>
<defs>
<clipPath id="clip0_644_19">
<rect width="60" height="60" fill="white"/>
</clipPath>
</defs>
</svg>
