<svg xmlns="http://www.w3.org/2000/svg" viewBox="0 0 317 40">
	<path d="M0 39.5699V0.376346H2.79269L33.4049 37.2581H33.6735L33.4586 23.2796V0.376346H35.4995V39.5699H32.7068L2.14823 2.68817H1.8797L2.04082 16.129V39.5699H0Z" fill="currentColor"></path>
	<path d="M129.907 39.5699V2.31183H114.172V0.376346H147.63V2.31183H131.948V39.5699H129.907Z" fill="currentColor"></path>
	<path d="M152.673 39.5699V0.376346H154.714V37.5806H178.881V39.5699H152.673Z" fill="currentColor"></path>
	<path d="M198.061 40C193.943 40 190.345 39.1577 187.266 37.4731C184.222 35.7885 181.859 33.4588 180.177 30.4839C178.494 27.4731 177.652 23.9785 177.652 20C177.652 15.9857 178.494 12.491 180.177 9.51613C181.895 6.50538 184.276 4.17563 187.32 2.52688C190.399 0.842295 193.979 0 198.061 0C202.178 0 205.758 0.842295 208.802 2.52688C211.881 4.17563 214.262 6.50538 215.945 9.51613C217.627 12.491 218.469 15.9857 218.469 20C218.469 24.0143 217.61 27.5269 215.891 30.5376C214.208 33.5125 211.827 35.8423 208.748 37.5269C205.705 39.1756 202.142 40 198.061 40ZM198.061 38.0645C201.856 38.0645 205.114 37.3118 207.835 35.8065C210.556 34.2652 212.651 32.1505 214.119 29.4624C215.587 26.7384 216.321 23.5842 216.321 20C216.321 16.3799 215.569 13.2258 214.065 10.5376C212.597 7.81362 210.502 5.69892 207.781 4.19355C205.06 2.68817 201.82 1.93548 198.061 1.93548C194.265 1.93548 191.007 2.68817 188.286 4.19355C185.565 5.69892 183.471 7.81362 182.003 10.5376C180.535 13.2258 179.801 16.3799 179.801 20C179.801 23.5842 180.535 26.7384 182.003 29.4624C183.506 32.1864 185.619 34.3011 188.34 35.8065C191.061 37.3118 194.301 38.0645 198.061 38.0645Z" fill="currentColor"></path>
	<path d="M243.324 40C239.206 40 235.608 39.1756 232.529 37.5269C229.485 35.8423 227.105 33.4946 225.386 30.4839C223.703 27.4731 222.862 23.9785 222.862 20C222.862 15.9857 223.721 12.491 225.44 9.51613C227.158 6.50538 229.557 4.17563 232.636 2.52688C235.715 0.842295 239.278 0 243.324 0C246.618 0 249.589 0.537635 252.239 1.6129C254.924 2.68817 257.126 4.21147 258.845 6.1828C260.563 8.11828 261.655 10.4122 262.121 13.0645H260.026C259.596 10.7706 258.612 8.79928 257.072 7.15054C255.533 5.50179 253.581 4.22939 251.218 3.33333C248.891 2.43728 246.26 1.98925 243.324 1.98925C239.636 1.98925 236.396 2.74194 233.603 4.24731C230.846 5.71685 228.698 7.7957 227.158 10.4839C225.619 13.172 224.849 16.3262 224.849 19.9462C224.849 23.5663 225.601 26.7384 227.104 29.4624C228.644 32.1864 230.792 34.3011 233.549 35.8065C236.342 37.3118 239.6 38.0645 243.324 38.0645C246.832 38.0645 249.912 37.4194 252.561 36.129C255.21 34.8387 257.287 32.9928 258.791 30.5914C260.295 28.19 261.046 25.3226 261.046 21.9892V21.7742H242.518V19.8925H263.248V21.2903C263.248 25.1613 262.407 28.4946 260.724 31.2903C259.077 34.086 256.75 36.2366 253.743 37.7419C250.771 39.2473 247.298 40 243.324 40Z" fill="currentColor"></path>
	<path d="M269.315 39.5699V0.376346H271.356V39.5699H269.315Z" fill="currentColor"></path>
	<path d="M297.816 40C293.699 40 290.1 39.1577 287.021 37.4731C283.978 35.7885 281.597 33.4588 279.878 30.4839C278.196 27.4731 277.354 23.9785 277.354 20C277.354 15.9857 278.196 12.491 279.878 9.51613C281.597 6.50538 283.996 4.17563 287.075 2.52688C290.154 0.842295 293.734 0 297.816 0C301.146 0 304.135 0.537635 306.785 1.6129C309.434 2.65233 311.618 4.13979 313.337 6.07527C315.055 8.01075 316.165 10.3226 316.667 13.0108H314.572C314.107 10.7527 313.104 8.79928 311.565 7.15054C310.061 5.46595 308.127 4.17563 305.764 3.27957C303.437 2.38351 300.788 1.93548 297.816 1.93548C294.021 1.93548 290.745 2.68817 287.988 4.19355C285.267 5.69892 283.172 7.81362 281.704 10.5376C280.236 13.2258 279.502 16.3799 279.502 20C279.502 23.6201 280.236 26.7921 281.704 29.5161C283.172 32.2043 285.267 34.3011 287.988 35.8065C290.745 37.3118 294.021 38.0645 297.816 38.0645C300.895 38.0645 303.616 37.5986 305.979 36.6667C308.342 35.7348 310.258 34.4265 311.726 32.7419C313.23 31.0215 314.178 29.0323 314.572 26.7742L316.667 26.828C316.273 29.5161 315.217 31.8459 313.498 33.8172C311.815 35.7885 309.631 37.3118 306.946 38.3871C304.261 39.4624 301.217 40 297.816 40Z" fill="currentColor"></path>
	<path d="M43.1114 0.376346H73.5088V2.31183H43.1114V0.376346Z" fill="currentColor"></path>
	<path d="M43.1114 37.5806H73.5088V39.5699H43.1114V37.5806Z" fill="currentColor"></path>
	<path d="M93.9849 18.0612L108.522 0.376346H110.939L95.3104 19.4086L111.959 39.5699H109.328L93.9627 20.8014L95.055 19.4801L93.9849 18.0612Z" fill="currentColor"></path>
	<path d="M43.2162 18.5383H71.0357V20.3663H43.2162V18.5383Z" fill="#a89c16"></path>
	<path d="M76.1348 39.6136L92.7299 19.4523L77.2089 0.420044L79.6257 0.420246L95.1598 19.5238L78.5516 39.6136H76.1348Z" fill="#a89c16"></path>
</svg>