<?xml version="1.0" encoding="utf-8"?>
<!-- Generator: Adobe Illustrator 27.5.0, SVG Export Plug-In . SVG Version: 6.00 Build 0)  -->
<!DOCTYPE svg PUBLIC "-//W3C//DTD SVG 1.1//EN" "http://www.w3.org/Graphics/SVG/1.1/DTD/svg11.dtd" [
	<!ENTITY ns_extend "http://ns.adobe.com/Extensibility/1.0/">
	<!ENTITY ns_ai "http://ns.adobe.com/AdobeIllustrator/10.0/">
	<!ENTITY ns_graphs "http://ns.adobe.com/Graphs/1.0/">
	<!ENTITY ns_vars "http://ns.adobe.com/Variables/1.0/">
	<!ENTITY ns_imrep "http://ns.adobe.com/ImageReplacement/1.0/">
	<!ENTITY ns_sfw "http://ns.adobe.com/SaveForWeb/1.0/">
	<!ENTITY ns_custom "http://ns.adobe.com/GenericCustomNamespace/1.0/">
	<!ENTITY ns_adobe_xpath "http://ns.adobe.com/XPath/1.0/">
]>
<svg version="1.1" id="Layer_1" xmlns:x="&ns_extend;" xmlns:i="&ns_ai;" xmlns:graph="&ns_graphs;"
	 xmlns="http://www.w3.org/2000/svg" xmlns:xlink="http://www.w3.org/1999/xlink" x="0px" y="0px" viewBox="0 0 317 40"
	 style="enable-background:new 0 0 317 40;" xml:space="preserve">
<style type="text/css">
	.st0{fill:#FFFFFF;}
	.st1{fill:#A89C16;}
</style>
<metadata>
	<sfw  xmlns="&ns_sfw;">
		<slices></slices>
		<sliceSourceBounds  bottomLeftOrigin="true" height="40" width="314.6" x="2" y="0"></sliceSourceBounds>
	</sfw>
</metadata>
<path class="st0" d="M2,39.6V0.4h2.6l28.9,36.9h0.3l-0.2-14V0.4h1.9v39.2h-2.6L4.1,2.7H3.8L4,16.1v23.4H2z"/>
<path class="st0" d="M129.9,39.6V2.3h-15.7V0.4h33.5v1.9h-15.7v37.3H129.9z"/>
<path class="st0" d="M152.7,39.6V0.4h2v37.2h24.2v2H152.7z"/>
<path class="st0" d="M198.1,40c-4.1,0-7.7-0.8-10.8-2.5c-3-1.7-5.4-4-7.1-7c-1.7-3-2.5-6.5-2.5-10.5c0-4,0.8-7.5,2.5-10.5
	c1.7-3,4.1-5.3,7.1-7C190.4,0.8,194,0,198.1,0c4.1,0,7.7,0.8,10.7,2.5c3.1,1.6,5.5,4,7.1,7c1.7,3,2.5,6.5,2.5,10.5
	s-0.9,7.5-2.6,10.5c-1.7,3-4.1,5.3-7.1,7C205.7,39.2,202.1,40,198.1,40z M198.1,38.1c3.8,0,7.1-0.8,9.8-2.3c2.7-1.5,4.8-3.7,6.3-6.3
	c1.5-2.7,2.2-5.9,2.2-9.5c0-3.6-0.8-6.8-2.3-9.5c-1.5-2.7-3.6-4.8-6.3-6.3c-2.7-1.5-6-2.3-9.7-2.3c-3.8,0-7.1,0.8-9.8,2.3
	c-2.7,1.5-4.8,3.6-6.3,6.3c-1.5,2.7-2.2,5.8-2.2,9.5c0,3.6,0.7,6.7,2.2,9.5c1.5,2.7,3.6,4.8,6.3,6.3
	C191.1,37.3,194.3,38.1,198.1,38.1z"/>
<path class="st0" d="M243.3,40c-4.1,0-7.7-0.8-10.8-2.5c-3-1.7-5.4-4-7.1-7c-1.7-3-2.5-6.5-2.5-10.5c0-4,0.9-7.5,2.6-10.5
	c1.7-3,4.1-5.3,7.2-7c3.1-1.7,6.6-2.5,10.7-2.5c3.3,0,6.3,0.5,8.9,1.6c2.7,1.1,4.9,2.6,6.6,4.6c1.7,1.9,2.8,4.2,3.3,6.9H260
	c-0.4-2.3-1.4-4.3-3-5.9c-1.5-1.6-3.5-2.9-5.9-3.8c-2.3-0.9-5-1.3-7.9-1.3c-3.7,0-6.9,0.8-9.7,2.3c-2.8,1.5-4.9,3.5-6.4,6.2
	c-1.5,2.7-2.3,5.8-2.3,9.5c0,3.6,0.8,6.8,2.3,9.5c1.5,2.7,3.7,4.8,6.4,6.3c2.8,1.5,6.1,2.3,9.8,2.3c3.5,0,6.6-0.6,9.2-1.9
	c2.6-1.3,4.7-3.1,6.2-5.5c1.5-2.4,2.3-5.3,2.3-8.6v-0.2h-18.5v-1.9h20.7v1.4c0,3.9-0.8,7.2-2.5,10c-1.6,2.8-4,4.9-7,6.5
	C250.8,39.2,247.3,40,243.3,40z"/>
<path class="st0" d="M269.3,39.6V0.4h2v39.2H269.3z"/>
<path class="st0" d="M297.8,40c-4.1,0-7.7-0.8-10.8-2.5c-3-1.7-5.4-4-7.1-7c-1.7-3-2.5-6.5-2.5-10.5c0-4,0.8-7.5,2.5-10.5
	c1.7-3,4.1-5.3,7.2-7c3.1-1.7,6.7-2.5,10.7-2.5c3.3,0,6.3,0.5,9,1.6c2.6,1,4.8,2.5,6.6,4.5c1.7,1.9,2.8,4.2,3.3,6.9h-2.1
	c-0.5-2.3-1.5-4.2-3-5.9c-1.5-1.7-3.4-3-5.8-3.9c-2.3-0.9-5-1.3-7.9-1.3c-3.8,0-7.1,0.8-9.8,2.3c-2.7,1.5-4.8,3.6-6.3,6.3
	c-1.5,2.7-2.2,5.8-2.2,9.5s0.7,6.8,2.2,9.5c1.5,2.7,3.6,4.8,6.3,6.3c2.8,1.5,6,2.3,9.8,2.3c3.1,0,5.8-0.5,8.2-1.4s4.3-2.2,5.7-3.9
	c1.5-1.7,2.5-3.7,2.8-6l2.1,0.1c-0.4,2.7-1.4,5-3.2,7c-1.7,2-3.9,3.5-6.6,4.6C304.3,39.5,301.2,40,297.8,40z"/>
<path class="st0" d="M43.1,0.4h30.4v1.9H43.1V0.4z"/>
<path class="st0" d="M43.1,37.6h30.4v2H43.1V37.6z"/>
<path class="st0" d="M94,18.1l14.5-17.7h2.4l-15.6,19L112,39.6h-2.6L94,20.8l1.1-1.3L94,18.1z"/>
<path class="st1" d="M43.2,18.5H71v1.8H43.2V18.5z"/>
<path class="st1" d="M76.1,39.6l16.6-20.2l-15.5-19l2.4,0l15.5,19.1L78.6,39.6H76.1z"/>
</svg>
